<?xml version="1.0" standalone="no"?>
<!DOCTYPE svg PUBLIC "-//W3C//DTD SVG 20010904//EN"
 "http://www.w3.org/TR/2001/REC-SVG-20010904/DTD/svg10.dtd">
<svg version="1.0" xmlns="http://www.w3.org/2000/svg"
 width="722.000000pt" height="923.000000pt" viewBox="0 0 722.000000 923.000000"
 preserveAspectRatio="xMidYMid meet">

<g transform="translate(0.000000,923.000000) scale(0.100000,-0.100000)"
fill="white" stroke="none">
<path d="M5285 8956 c-187 -62 -359 -123 -383 -135 -113 -58 -175 -155 -175
-274 -1 -136 54 -212 198 -278 41 -19 74 -36 74 -39 0 -3 -38 -23 -85 -45
-128 -59 -183 -127 -184 -226 l0 -46 -74 -27 c-233 -85 -362 -252 -382 -495
-7 -83 13 -206 42 -262 16 -31 16 -32 -8 -26 -12 3 -83 22 -157 42 -207 55
-318 69 -541 70 -806 1 -1423 -377 -1684 -1034 -92 -231 -121 -376 -120 -611
1 -196 16 -290 79 -478 72 -216 184 -386 430 -657 308 -340 415 -517 415 -690
0 -123 -46 -222 -153 -326 -180 -176 -435 -318 -667 -370 -107 -24 -345 -26
-447 -4 -303 64 -444 212 -446 470 -1 173 62 365 199 605 128 225 154 296 154
420 0 80 -21 180 -46 217 -20 31 -18 36 21 57 102 55 162 170 153 291 -10 116
-71 196 -196 255 l-72 34 89 43 c61 29 100 55 124 83 79 93 73 232 -15 320
-40 39 -128 76 -231 95 -20 4 -39 10 -42 14 -2 4 58 27 133 51 158 50 192 75
192 138 0 46 -22 80 -66 98 -30 12 -41 11 -126 -15 -218 -68 -656 -215 -691
-233 -150 -76 -218 -254 -152 -396 14 -30 25 -55 25 -56 0 -1 -16 -3 -36 -4
-86 -6 -188 -84 -230 -176 -52 -114 -54 -318 -4 -421 44 -90 126 -155 255
-199 12 -4 15 -10 9 -14 -42 -27 -45 -103 -5 -143 42 -42 70 -42 212 2 53 16
101 29 106 29 5 0 30 -21 56 -46 125 -126 116 -242 -37 -471 -188 -284 -277
-504 -313 -771 -14 -106 -15 -143 -5 -227 30 -270 160 -440 436 -571 191 -90
332 -124 551 -131 238 -8 462 28 709 114 110 38 299 125 378 173 28 17 53 29
55 26 15 -15 46 -265 47 -376 1 -138 -13 -191 -69 -264 -93 -122 -368 -167
-604 -99 -128 36 -231 89 -541 273 -261 155 -364 192 -536 192 -96 0 -165 -14
-250 -52 -174 -78 -321 -250 -369 -430 -19 -72 -19 -220 0 -294 58 -222 267
-423 475 -457 163 -26 290 70 290 221 0 92 -28 129 -172 232 -107 75 -152 177
-109 245 56 89 196 88 350 -3 52 -30 130 -95 337 -279 458 -407 895 -547 1309
-418 241 75 414 230 486 433 20 56 23 85 24 208 l0 142 19 -27 c30 -45 184
-190 271 -255 59 -45 230 -141 293 -164 1 -1 -9 -26 -23 -57 -20 -42 -26 -73
-26 -121 0 -152 54 -228 219 -303 29 -14 50 -28 47 -32 -2 -5 -31 -18 -62 -30
-77 -29 -131 -68 -167 -118 -39 -57 -48 -158 -18 -225 28 -64 75 -95 210 -138
64 -21 110 -40 102 -43 -8 -3 -71 -25 -139 -48 -68 -24 -136 -53 -151 -66 -56
-46 -43 -138 24 -170 43 -20 9 -29 471 124 372 123 405 136 459 184 59 51 86
119 86 214 0 139 -50 210 -201 286 -61 31 -70 39 -54 45 68 24 146 65 177 92
96 85 102 246 11 343 l-24 26 63 22 c134 48 247 122 365 239 102 102 176 216
228 354 l18 48 117 0 c257 0 653 108 877 239 151 87 292 218 361 334 201 335
188 786 -32 1107 -88 130 -288 277 -414 304 -32 8 -36 26 -5 26 37 0 105 43
121 76 33 71 -18 150 -96 147 -41 -2 -724 -228 -790 -262 -22 -11 -57 -38 -77
-58 -60 -61 -78 -107 -83 -205 -4 -80 -2 -93 23 -143 17 -37 42 -67 71 -88 28
-21 41 -37 38 -47 -3 -8 -8 -39 -11 -68 -5 -45 -11 -57 -39 -78 -75 -58 -106
-190 -65 -279 29 -65 79 -100 188 -135 53 -16 103 -30 110 -30 39 0 -1 -20
-116 -58 -146 -48 -176 -67 -192 -121 -9 -31 -8 -43 5 -69 17 -33 61 -62 95
-62 11 0 166 48 343 106 178 59 330 109 338 111 37 11 -92 -91 -160 -126 -143
-74 -268 -102 -520 -117 l-116 -6 -24 53 c-70 153 -170 274 -315 382 -150 112
-370 199 -535 213 l-79 7 42 30 c37 27 168 135 252 208 17 14 84 73 150 131
259 226 557 531 722 740 188 237 309 517 344 795 15 119 7 359 -16 466 -37
175 -131 398 -234 552 -119 178 -245 318 -521 581 -253 240 -350 380 -350 503
0 35 5 63 13 68 6 6 167 61 357 123 190 61 367 124 393 138 93 50 145 133 154
245 l6 72 67 71 c215 227 200 551 -36 793 l-72 73 14 34 c17 42 10 75 -23 109
-46 45 -89 37 -468 -89z m439 63 c14 -11 26 -30 26 -43 0 -49 -24 -63 -223
-126 -219 -70 -491 -164 -554 -191 -54 -23 -77 -65 -70 -128 4 -35 12 -52 33
-69 31 -25 233 -119 514 -239 96 -41 194 -89 217 -106 111 -83 127 -273 31
-378 -55 -61 -103 -80 -718 -279 -69 -22 -134 -40 -145 -40 -34 0 -65 28 -65
60 0 51 41 72 322 165 434 145 449 151 486 190 44 48 48 111 9 154 -24 26
-194 111 -437 216 -180 78 -277 128 -308 158 -55 52 -76 102 -76 182 -1 114
56 199 169 251 66 30 714 243 741 244 12 0 33 -9 48 -21z m40 -231 c120 -119
187 -283 171 -421 -9 -77 -70 -198 -128 -255 l-44 -43 -26 35 c-15 19 -42 44
-61 55 -33 21 -34 21 -20 59 7 20 13 44 14 52 0 8 16 26 34 40 124 92 126 292
4 380 -40 30 -128 62 -204 76 -22 3 -43 9 -49 12 -8 5 195 79 223 81 7 1 45
-32 86 -71z m-93 -120 c57 -32 94 -109 86 -182 -10 -100 -48 -140 -194 -204
-80 -35 -83 -35 -200 20 l-52 25 57 23 c148 62 241 110 247 130 9 27 -18 68
-53 81 -15 6 -117 35 -227 64 -144 38 -194 55 -180 61 10 4 64 22 119 39 l101
32 128 -33 c70 -18 146 -43 168 -56z m-539 -27 c13 -5 42 -27 66 -50 24 -23
48 -41 55 -41 7 0 24 -6 39 -14 14 -8 73 -22 130 -31 56 -9 107 -21 112 -26 9
-8 -82 -54 -216 -109 l-58 -24 -77 34 c-134 58 -218 100 -230 117 -18 23 -16
74 3 101 30 43 120 65 176 43z m200 -55 c24 -8 52 -16 63 -19 11 -3 5 -5 -15
-5 -19 -1 -51 7 -70 18 -42 23 -35 25 22 6z m288 -356 c-14 -34 -15 -34 -61
-18 l-34 12 50 22 c28 12 52 20 54 18 2 -2 -2 -17 -9 -34z m-453 -74 c29 -11
53 -23 53 -26 0 -3 -33 -18 -73 -34 -166 -67 -237 -106 -243 -132 -5 -18 -1
-31 12 -44 17 -16 182 -73 373 -127 l64 -18 -117 -39 -118 -38 -131 43 c-108
35 -139 49 -169 78 -60 61 -69 137 -27 223 24 48 64 78 169 126 82 38 86 39
120 24 19 -8 59 -24 87 -36z m277 -125 c168 -79 176 -120 36 -191 l-80 -40
-205 62 c-182 55 -238 78 -190 78 19 0 181 67 260 108 33 17 64 31 68 32 4 0
55 -22 111 -49z m-668 -226 c24 -36 67 -59 177 -95 54 -18 97 -34 95 -36 -2
-2 -57 -22 -122 -44 -65 -22 -129 -48 -142 -57 -30 -20 -54 -63 -54 -99 0 -30
58 -94 87 -94 15 0 18 -9 19 -59 0 -48 8 -74 38 -137 40 -80 186 -281 324
-444 274 -324 331 -395 394 -485 83 -119 196 -338 231 -451 86 -272 84 -541
-5 -839 -100 -332 -364 -690 -895 -1216 -324 -321 -471 -449 -516 -449 -18 -1
-56 -9 -84 -19 l-53 -18 -24 31 c-27 33 -38 16 -12 -19 12 -17 9 -23 -35 -62
-160 -145 -143 -363 36 -456 99 -51 217 -12 245 81 6 20 14 43 16 51 3 11 11
8 32 -11 50 -47 112 -81 240 -132 145 -59 146 -60 164 -183 13 -95 -2 -205
-36 -255 -22 -33 -23 -33 -91 -30 -101 4 -307 40 -400 69 -363 114 -562 370
-582 751 -3 61 -9 112 -13 112 -8 0 -20 -75 -20 -122 0 -16 -15 -55 -34 -87
-82 -140 -119 -275 -119 -431 1 -95 5 -131 27 -205 59 -199 185 -353 357 -438
133 -66 200 -81 329 -74 386 20 690 281 690 590 0 147 -42 251 -147 367 -126
137 -286 227 -420 237 l-78 6 27 -26 c33 -31 42 -62 36 -131 -5 -63 -30 -100
-81 -121 -68 -28 -163 12 -217 91 -64 96 0 262 128 328 117 60 359 39 558 -49
157 -69 370 -247 443 -368 102 -171 148 -437 106 -615 -70 -298 -256 -499
-570 -617 l-61 -23 -107 31 c-59 18 -107 34 -107 37 1 3 55 23 122 45 135 44
176 67 196 108 30 62 -20 137 -92 137 -25 0 -180 -46 -408 -121 -282 -92 -380
-129 -426 -158 l-59 -39 -60 32 c-186 100 -318 238 -470 491 -106 178 -140
290 -150 500 -12 261 48 488 164 616 l35 39 -46 -14 c-112 -34 -252 -153 -304
-259 -74 -151 -71 -270 18 -612 77 -297 102 -486 81 -615 -39 -240 -281 -433
-589 -470 -163 -20 -351 12 -586 100 -198 73 -394 192 -646 391 -180 142 -223
172 -305 211 -123 57 -239 47 -304 -28 -37 -42 -45 -69 -39 -135 7 -68 52
-130 156 -213 45 -37 90 -79 100 -94 25 -39 22 -120 -7 -160 -31 -44 -54 -54
-123 -54 -182 0 -404 219 -441 435 -35 209 111 466 327 573 70 34 88 39 172
42 170 8 286 -38 584 -229 325 -209 538 -289 770 -289 222 0 392 69 473 193
100 154 107 323 27 719 -46 228 -50 309 -19 400 54 160 222 319 415 395 57 22
86 26 169 27 55 1 114 -2 130 -6 28 -7 28 -6 -5 9 -91 41 -249 22 -396 -46
-172 -81 -314 -211 -382 -350 -37 -76 -37 -77 -38 -210 l-1 -135 -34 -23 c-54
-37 -198 -109 -285 -143 -103 -40 -362 -104 -499 -125 -124 -18 -379 -21 -476
-6 -227 37 -450 148 -578 288 -112 121 -145 225 -145 443 1 246 50 429 187
690 165 317 187 373 187 495 0 54 -35 143 -72 182 -16 18 -18 23 -7 27 8 2 97
32 199 65 102 34 190 61 196 61 16 0 52 -82 64 -150 22 -119 -19 -246 -135
-419 -40 -61 -105 -175 -144 -253 -204 -412 -167 -708 112 -900 222 -152 576
-180 906 -72 230 75 493 265 610 439 70 104 92 171 98 285 12 218 -71 394
-342 730 -190 236 -274 354 -333 468 -197 381 -229 738 -101 1127 43 131 158
357 233 455 306 405 779 620 1364 620 246 0 428 -29 665 -106 224 -73 506
-229 674 -371 267 -227 411 -462 480 -784 25 -118 25 -382 0 -499 -39 -185
-107 -344 -222 -515 -131 -196 -258 -322 -545 -545 -167 -129 -233 -191 -321
-301 -134 -168 -229 -347 -244 -460 l-6 -44 23 55 c30 70 73 133 161 237 101
120 174 185 492 430 414 320 608 563 736 923 48 135 69 243 75 395 14 312 -54
570 -212 812 -176 272 -433 490 -789 668 l-160 81 -12 49 c-6 28 -12 95 -12
151 -2 253 98 426 309 530 58 29 66 29 86 -1z m-3359 -1610 c27 -19 33 -46 18
-81 -11 -27 -32 -36 -355 -144 -189 -63 -364 -124 -390 -136 -59 -27 -90 -66
-90 -113 0 -82 41 -113 306 -224 71 -30 150 -64 174 -75 25 -11 74 -32 110
-47 99 -41 164 -81 205 -126 49 -55 65 -96 65 -171 -1 -98 -45 -178 -127 -229
-33 -21 -718 -253 -779 -265 -28 -5 -40 -2 -60 17 -26 25 -31 65 -11 92 12 17
184 79 576 209 201 66 245 93 257 153 16 90 -14 114 -298 240 -134 59 -288
127 -344 152 -150 66 -214 141 -216 252 -2 100 52 197 136 246 41 24 754 264
786 265 9 0 25 -7 37 -15z m-197 -303 c52 -14 109 -32 125 -40 123 -60 153
-215 60 -314 -17 -17 -72 -52 -123 -76 l-94 -44 -88 38 -88 37 136 59 c75 32
145 68 155 80 23 28 18 56 -14 81 -26 19 -384 126 -423 127 -34 0 -8 13 102
51 62 22 117 35 132 32 14 -3 68 -16 120 -31z m-209 -127 c129 -36 240 -72
248 -80 7 -7 11 -20 8 -28 -5 -14 -161 -86 -264 -123 l-51 -18 -133 59 c-73
32 -143 68 -156 80 -36 31 -40 76 -11 110 20 23 92 62 119 64 3 1 111 -28 240
-64z m-507 -283 c2 -4 -4 -32 -14 -62 -11 -30 -20 -77 -20 -105 0 -33 -9 -67
-25 -99 -31 -62 -33 -133 -4 -196 37 -81 93 -121 219 -155 36 -10 69 -21 73
-25 4 -4 -19 -15 -52 -25 -69 -21 -128 -16 -225 17 -131 45 -183 109 -207 254
-23 140 19 302 93 357 52 39 148 62 162 39z m134 -57 c29 -14 52 -27 52 -30 0
-4 -148 -75 -156 -75 -2 0 -4 10 -4 23 0 27 36 107 48 107 4 0 32 -11 60 -25z
m213 -98 l73 -33 -140 -58 c-76 -32 -149 -64 -161 -72 -26 -16 -31 -65 -10
-82 11 -9 351 -122 368 -122 4 0 20 -5 36 -11 26 -10 21 -13 -91 -50 l-119
-39 -126 41 c-107 35 -132 48 -163 80 -76 79 -76 184 0 268 42 47 201 124 239
116 12 -3 54 -20 94 -38z m265 -115 c103 -46 134 -65 152 -92 38 -57 8 -104
-90 -140 l-60 -22 -217 67 c-119 36 -224 69 -233 71 -10 3 -18 14 -18 26 0 11
8 22 18 25 9 2 78 31 152 63 74 32 142 58 151 59 9 1 74 -25 145 -57z m5334
-872 c25 -25 26 -74 2 -98 -10 -10 -51 -28 -92 -41 -178 -53 -599 -196 -647
-218 -61 -28 -87 -64 -88 -118 0 -80 29 -100 370 -249 391 -172 416 -186 462
-258 21 -34 27 -59 31 -120 4 -69 2 -84 -22 -132 -47 -97 -70 -108 -495 -250
-209 -69 -394 -126 -412 -126 -65 0 -93 67 -46 113 15 16 126 57 352 131 182
60 358 121 392 137 54 26 63 34 79 74 16 43 16 47 -1 85 -20 45 -46 63 -155
110 -75 33 -127 56 -275 125 -44 21 -101 46 -127 56 -110 43 -207 99 -241 139
-110 129 -48 338 121 412 74 32 724 247 750 248 12 0 31 -9 42 -20z m-126
-250 c103 -26 187 -72 264 -145 136 -127 228 -300 262 -494 16 -89 16 -261 0
-351 -60 -351 -289 -581 -751 -753 -175 -66 -413 -126 -558 -142 l-64 -7 7 28
c9 34 9 231 1 271 -17 81 -25 73 67 73 304 0 589 95 752 249 32 31 93 109 136
174 90 134 96 154 88 311 -6 104 -38 224 -78 293 -18 31 -18 31 7 55 53 49 80
134 69 212 -16 104 -103 176 -258 213 -43 10 -78 21 -78 26 0 13 54 8 134 -13z
m-59 -55 c115 -33 160 -58 192 -107 24 -35 28 -52 28 -109 0 -58 -4 -73 -30
-111 -25 -35 -49 -52 -136 -95 l-106 -52 -86 37 c-48 20 -87 40 -87 43 0 3 62
32 138 64 149 62 172 77 172 110 0 40 -24 54 -175 95 -275 77 -310 88 -295 94
8 3 61 21 118 40 113 37 107 38 267 -9z m-507 -119 c-24 -30 -51 -66 -62 -81
-21 -30 -36 -20 -36 25 0 37 27 69 74 91 65 29 69 23 24 -35z m249 0 c200 -55
305 -87 301 -92 -2 -1 -21 1 -43 6 -100 23 -233 -2 -357 -67 l-68 -35 -65 27
c-36 16 -65 30 -65 32 0 15 124 173 135 173 2 0 75 -20 162 -44z m252 -130
c-10 -10 -267 -116 -280 -116 -8 0 -32 9 -54 19 l-40 19 59 26 c81 37 157 54
245 55 41 1 72 -1 70 -3z m-549 -248 c0 -4 -6 -8 -13 -8 -7 0 -30 -9 -52 -20
-22 -11 -41 -20 -42 -20 -6 0 -3 26 7 62 l11 37 44 -21 c25 -12 45 -26 45 -30z
m686 0 c9 -29 19 -58 21 -65 3 -6 -32 7 -77 29 l-81 41 53 22 c29 13 56 23 60
24 3 0 14 -23 24 -51z m-540 -55 c46 -20 81 -40 77 -44 -5 -4 -65 -30 -135
-59 -162 -66 -204 -103 -163 -143 14 -15 122 -52 333 -117 57 -18 102 -33 100
-35 -2 -2 -53 -19 -114 -39 l-110 -36 -140 45 c-181 57 -214 89 -214 206 0 61
27 118 75 156 26 21 166 91 203 102 2 1 41 -16 88 -36z m284 -123 c74 -33 143
-70 153 -81 24 -29 22 -84 -4 -108 -11 -10 -48 -29 -80 -42 l-60 -22 -72 22
c-40 12 -146 44 -237 72 -90 27 -169 54 -173 58 -5 5 2 17 18 27 28 18 293
132 310 133 6 1 71 -26 145 -59z m-2859 -222 c-83 -112 -150 -276 -180 -446
l-18 -97 -9 60 c-5 33 -9 98 -8 145 1 99 26 167 97 258 38 50 131 131 150 132
4 0 -10 -24 -32 -52z m1309 -148 c85 -43 197 -127 227 -169 14 -20 13 -20 -14
-10 -134 50 -353 187 -353 220 0 11 89 -15 140 -41z m-786 -52 c26 -309 157
-518 401 -640 121 -61 272 -100 494 -130 l94 -12 -42 -37 c-58 -52 -186 -116
-277 -139 -203 -52 -398 -3 -556 141 -71 63 -161 190 -195 274 -46 112 -53
282 -18 419 19 71 74 206 85 206 4 0 11 -37 14 -82z m1015 -1114 c12 -15 21
-35 21 -46 0 -45 -41 -64 -401 -183 -195 -64 -368 -125 -385 -136 -44 -27 -67
-66 -67 -115 0 -54 25 -87 93 -120 87 -42 467 -212 550 -246 162 -67 225 -143
225 -273 -1 -52 -6 -81 -22 -111 -22 -41 -83 -103 -124 -124 -39 -22 -769
-260 -795 -260 -60 0 -86 81 -37 119 14 12 183 73 375 136 192 63 366 124 387
136 67 37 89 105 55 170 -17 35 -65 58 -459 231 -226 99 -276 124 -313 159
-71 67 -99 175 -68 270 42 126 71 143 528 294 205 69 383 124 395 125 12 0 31
-12 42 -26z m-229 -294 c61 -17 126 -36 143 -44 73 -31 117 -99 117 -181 0
-99 -48 -153 -187 -215 l-95 -42 -79 33 c-43 18 -79 35 -79 38 0 3 42 24 92
46 158 69 192 89 206 117 22 47 3 64 -106 97 -53 16 -133 39 -177 50 -44 11
-105 29 -135 39 l-55 19 110 36 c61 20 116 36 122 37 7 0 63 -14 123 -30z
m-375 -95 c81 -13 221 -48 398 -100 36 -10 57 -22 57 -31 0 -15 -101 -67 -255
-132 l-71 -29 -90 42 c-50 23 -111 50 -137 60 -82 31 -111 77 -86 136 11 29
61 69 84 69 6 0 51 -7 100 -15z m21 -477 l68 -32 -34 -14 c-108 -43 -247 -105
-263 -117 -11 -8 -20 -28 -20 -47 l-2 -33 155 -51 c85 -28 185 -60 223 -70 37
-10 67 -20 67 -23 0 -3 -50 -21 -110 -40 l-110 -35 -98 28 c-209 60 -262 104
-262 216 0 67 19 110 67 150 50 42 201 111 229 105 11 -3 52 -19 90 -37z m256
-109 c153 -70 178 -89 178 -139 0 -48 -36 -81 -113 -106 l-52 -16 -145 45
c-80 25 -187 59 -239 74 -52 16 -96 34 -98 40 -2 6 6 17 19 24 46 25 303 128
320 129 9 0 68 -23 130 -51z"/>
<path d="M3053 4765 c-178 -55 -289 -236 -253 -413 31 -151 147 -243 308 -244
178 -1 321 103 368 266 44 156 -47 341 -193 390 -56 19 -171 20 -230 1z m62
-39 c-30 -46 25 -116 92 -116 40 0 93 45 93 79 0 30 14 26 50 -16 54 -62 80
-128 80 -208 -1 -122 -58 -213 -168 -267 -60 -30 -76 -33 -152 -33 -99 0 -144
19 -202 83 -53 59 -72 116 -66 209 5 87 29 146 82 201 44 48 128 89 184 91 21
1 22 0 7 -23z"/>
<path d="M3785 4671 c-119 -31 -222 -123 -261 -233 -23 -66 -20 -205 6 -266
71 -166 283 -219 473 -119 68 35 115 89 153 171 37 80 37 191 1 270 -51 111
-149 177 -271 182 -39 2 -84 0 -101 -5z m45 -30 c0 -6 -4 -13 -10 -16 -5 -3
-10 -21 -10 -39 0 -56 66 -98 122 -77 33 13 68 50 68 73 0 10 4 18 8 18 15 0
70 -65 93 -110 32 -62 33 -184 2 -251 -27 -60 -86 -119 -149 -150 -57 -27
-175 -38 -234 -20 -60 18 -117 66 -147 123 -23 45 -27 65 -27 138 0 64 5 96
21 131 39 87 111 149 201 174 60 17 62 17 62 6z"/>
</g>
</svg>
